<mxfile host="app.diagrams.net" modified="2020-08-09T14:06:36.357Z" agent="5.0 (Windows NT 10.0; Win64; x64) AppleWebKit/537.36 (KHTML, like Gecko) Chrome/84.0.4147.89 Safari/537.36" etag="q3EyoGzCakDwq9VyFp7b" version="13.6.2" type="github">
  <diagram id="oWmU2e-HpzVE7TO_4tKb" name="Page-1">
    <mxGraphModel dx="1221" dy="726" grid="1" gridSize="10" guides="1" tooltips="1" connect="1" arrows="1" fold="1" page="1" pageScale="1" pageWidth="850" pageHeight="1100" math="0" shadow="0">
      <root>
        <mxCell id="0" />
        <mxCell id="1" parent="0" />
        <mxCell id="M5aVq9OFEUFdq9McIrYa-25" style="edgeStyle=orthogonalEdgeStyle;rounded=0;orthogonalLoop=1;jettySize=auto;html=1;entryX=0;entryY=0.75;entryDx=0;entryDy=0;" edge="1" parent="1" source="M5aVq9OFEUFdq9McIrYa-1" target="M5aVq9OFEUFdq9McIrYa-3">
          <mxGeometry relative="1" as="geometry">
            <Array as="points">
              <mxPoint x="220" y="89" />
              <mxPoint x="220" y="89" />
            </Array>
          </mxGeometry>
        </mxCell>
        <mxCell id="M5aVq9OFEUFdq9McIrYa-1" value="&lt;font style=&quot;font-size: 17px&quot;&gt;Customer&lt;/font&gt;" style="rounded=0;whiteSpace=wrap;html=1;fillColor=#d5e8d4;strokeColor=#82b366;" vertex="1" parent="1">
          <mxGeometry x="50" y="30" width="120" height="90" as="geometry" />
        </mxCell>
        <mxCell id="M5aVq9OFEUFdq9McIrYa-26" style="edgeStyle=orthogonalEdgeStyle;rounded=0;orthogonalLoop=1;jettySize=auto;html=1;entryX=1;entryY=0.25;entryDx=0;entryDy=0;" edge="1" parent="1" source="M5aVq9OFEUFdq9McIrYa-3" target="M5aVq9OFEUFdq9McIrYa-1">
          <mxGeometry relative="1" as="geometry">
            <Array as="points">
              <mxPoint x="330" y="53" />
              <mxPoint x="330" y="53" />
            </Array>
          </mxGeometry>
        </mxCell>
        <mxCell id="M5aVq9OFEUFdq9McIrYa-27" style="edgeStyle=orthogonalEdgeStyle;rounded=0;orthogonalLoop=1;jettySize=auto;html=1;entryX=0.5;entryY=0;entryDx=0;entryDy=0;" edge="1" parent="1" source="M5aVq9OFEUFdq9McIrYa-3" target="M5aVq9OFEUFdq9McIrYa-19">
          <mxGeometry relative="1" as="geometry" />
        </mxCell>
        <mxCell id="M5aVq9OFEUFdq9McIrYa-35" style="edgeStyle=orthogonalEdgeStyle;rounded=0;orthogonalLoop=1;jettySize=auto;html=1;entryX=0.5;entryY=0;entryDx=0;entryDy=0;" edge="1" parent="1" source="M5aVq9OFEUFdq9McIrYa-3" target="M5aVq9OFEUFdq9McIrYa-20">
          <mxGeometry relative="1" as="geometry" />
        </mxCell>
        <mxCell id="M5aVq9OFEUFdq9McIrYa-3" value="&lt;font style=&quot;font-size: 17px&quot;&gt;Point of sale system&lt;/font&gt;" style="rounded=1;whiteSpace=wrap;html=1;fillColor=#d5e8d4;strokeColor=#82b366;" vertex="1" parent="1">
          <mxGeometry x="380" y="40" width="120" height="65" as="geometry" />
        </mxCell>
        <mxCell id="M5aVq9OFEUFdq9McIrYa-4" value="&lt;font style=&quot;font-size: 17px&quot;&gt;Store Manager&lt;/font&gt;" style="rounded=0;whiteSpace=wrap;html=1;fillColor=#d5e8d4;strokeColor=#82b366;" vertex="1" parent="1">
          <mxGeometry x="680" y="501.25" width="130" height="125" as="geometry" />
        </mxCell>
        <mxCell id="M5aVq9OFEUFdq9McIrYa-18" value="&lt;font style=&quot;font-size: 17px&quot;&gt;Sales Total FIle&lt;/font&gt;" style="rounded=0;whiteSpace=wrap;html=1;fillColor=#d5e8d4;strokeColor=#82b366;" vertex="1" parent="1">
          <mxGeometry x="680" y="320" width="130" height="70" as="geometry" />
        </mxCell>
        <mxCell id="M5aVq9OFEUFdq9McIrYa-28" style="edgeStyle=orthogonalEdgeStyle;rounded=0;orthogonalLoop=1;jettySize=auto;html=1;entryX=0.5;entryY=0;entryDx=0;entryDy=0;" edge="1" parent="1" source="M5aVq9OFEUFdq9McIrYa-19" target="M5aVq9OFEUFdq9McIrYa-18">
          <mxGeometry relative="1" as="geometry" />
        </mxCell>
        <mxCell id="M5aVq9OFEUFdq9McIrYa-19" value="&lt;font style=&quot;font-size: 17px&quot;&gt;Update Sales Total File&lt;/font&gt;" style="rounded=1;whiteSpace=wrap;html=1;fillColor=#d5e8d4;strokeColor=#82b366;" vertex="1" parent="1">
          <mxGeometry x="680" y="180" width="130" height="70" as="geometry" />
        </mxCell>
        <mxCell id="M5aVq9OFEUFdq9McIrYa-33" style="edgeStyle=orthogonalEdgeStyle;rounded=0;orthogonalLoop=1;jettySize=auto;html=1;entryX=0.5;entryY=0;entryDx=0;entryDy=0;" edge="1" parent="1" source="M5aVq9OFEUFdq9McIrYa-20" target="M5aVq9OFEUFdq9McIrYa-23">
          <mxGeometry relative="1" as="geometry" />
        </mxCell>
        <mxCell id="M5aVq9OFEUFdq9McIrYa-20" value="&lt;font style=&quot;font-size: 17px&quot;&gt;Update Inventory File&lt;/font&gt;" style="rounded=1;whiteSpace=wrap;html=1;fillColor=#d5e8d4;strokeColor=#82b366;" vertex="1" parent="1">
          <mxGeometry x="375" y="180" width="130" height="70" as="geometry" />
        </mxCell>
        <mxCell id="M5aVq9OFEUFdq9McIrYa-32" style="edgeStyle=orthogonalEdgeStyle;rounded=0;orthogonalLoop=1;jettySize=auto;html=1;entryX=0.5;entryY=0;entryDx=0;entryDy=0;" edge="1" parent="1" source="M5aVq9OFEUFdq9McIrYa-21" target="M5aVq9OFEUFdq9McIrYa-22">
          <mxGeometry relative="1" as="geometry" />
        </mxCell>
        <mxCell id="M5aVq9OFEUFdq9McIrYa-21" value="&lt;font style=&quot;font-size: 17px&quot;&gt;Update Goods Sold File&lt;/font&gt;" style="rounded=1;whiteSpace=wrap;html=1;fillColor=#d5e8d4;strokeColor=#82b366;" vertex="1" parent="1">
          <mxGeometry x="180" y="180" width="130" height="70" as="geometry" />
        </mxCell>
        <mxCell id="M5aVq9OFEUFdq9McIrYa-31" style="edgeStyle=orthogonalEdgeStyle;rounded=0;orthogonalLoop=1;jettySize=auto;html=1;entryX=0;entryY=0.5;entryDx=0;entryDy=0;" edge="1" parent="1" source="M5aVq9OFEUFdq9McIrYa-22" target="M5aVq9OFEUFdq9McIrYa-24">
          <mxGeometry relative="1" as="geometry">
            <Array as="points">
              <mxPoint x="240" y="568" />
            </Array>
          </mxGeometry>
        </mxCell>
        <mxCell id="M5aVq9OFEUFdq9McIrYa-22" value="&lt;font style=&quot;font-size: 17px&quot;&gt;Goods Sold File&lt;/font&gt;" style="rounded=0;whiteSpace=wrap;html=1;fillColor=#d5e8d4;strokeColor=#82b366;" vertex="1" parent="1">
          <mxGeometry x="180" y="330" width="130" height="70" as="geometry" />
        </mxCell>
        <mxCell id="M5aVq9OFEUFdq9McIrYa-34" style="edgeStyle=orthogonalEdgeStyle;rounded=0;orthogonalLoop=1;jettySize=auto;html=1;" edge="1" parent="1" source="M5aVq9OFEUFdq9McIrYa-23" target="M5aVq9OFEUFdq9McIrYa-24">
          <mxGeometry relative="1" as="geometry" />
        </mxCell>
        <mxCell id="M5aVq9OFEUFdq9McIrYa-23" value="&lt;font style=&quot;font-size: 17px&quot;&gt;Inventory File&lt;/font&gt;" style="rounded=0;whiteSpace=wrap;html=1;fillColor=#d5e8d4;strokeColor=#82b366;" vertex="1" parent="1">
          <mxGeometry x="375" y="330" width="130" height="70" as="geometry" />
        </mxCell>
        <mxCell id="M5aVq9OFEUFdq9McIrYa-30" style="edgeStyle=orthogonalEdgeStyle;rounded=0;orthogonalLoop=1;jettySize=auto;html=1;entryX=0;entryY=0.5;entryDx=0;entryDy=0;" edge="1" parent="1" source="M5aVq9OFEUFdq9McIrYa-24" target="M5aVq9OFEUFdq9McIrYa-4">
          <mxGeometry relative="1" as="geometry" />
        </mxCell>
        <mxCell id="M5aVq9OFEUFdq9McIrYa-24" value="&lt;font style=&quot;font-size: 17px&quot;&gt;Produce Management Reports&lt;/font&gt;" style="rounded=1;whiteSpace=wrap;html=1;fillColor=#d5e8d4;strokeColor=#82b366;" vertex="1" parent="1">
          <mxGeometry x="375" y="530" width="130" height="67.5" as="geometry" />
        </mxCell>
        <mxCell id="M5aVq9OFEUFdq9McIrYa-29" value="" style="endArrow=classic;html=1;exitX=0;exitY=1;exitDx=0;exitDy=0;entryX=1;entryY=0;entryDx=0;entryDy=0;" edge="1" parent="1" source="M5aVq9OFEUFdq9McIrYa-18" target="M5aVq9OFEUFdq9McIrYa-24">
          <mxGeometry width="50" height="50" relative="1" as="geometry">
            <mxPoint x="360" y="330" as="sourcePoint" />
            <mxPoint x="410" y="280" as="targetPoint" />
          </mxGeometry>
        </mxCell>
        <mxCell id="M5aVq9OFEUFdq9McIrYa-36" value="" style="endArrow=classic;html=1;exitX=0;exitY=1;exitDx=0;exitDy=0;entryX=0.5;entryY=0;entryDx=0;entryDy=0;" edge="1" parent="1" source="M5aVq9OFEUFdq9McIrYa-3" target="M5aVq9OFEUFdq9McIrYa-21">
          <mxGeometry width="50" height="50" relative="1" as="geometry">
            <mxPoint x="360" y="330" as="sourcePoint" />
            <mxPoint x="410" y="280" as="targetPoint" />
          </mxGeometry>
        </mxCell>
        <mxCell id="M5aVq9OFEUFdq9McIrYa-37" value="&lt;font style=&quot;font-size: 15px&quot;&gt;Payment&lt;/font&gt;" style="text;html=1;strokeColor=none;fillColor=none;align=center;verticalAlign=middle;whiteSpace=wrap;rounded=0;" vertex="1" parent="1">
          <mxGeometry x="220" y="10" width="90" height="40" as="geometry" />
        </mxCell>
        <mxCell id="M5aVq9OFEUFdq9McIrYa-38" value="&lt;font style=&quot;font-size: 15px&quot;&gt;Receipt&lt;/font&gt;" style="text;html=1;strokeColor=none;fillColor=none;align=center;verticalAlign=middle;whiteSpace=wrap;rounded=0;" vertex="1" parent="1">
          <mxGeometry x="220" y="90" width="90" height="40" as="geometry" />
        </mxCell>
        <mxCell id="M5aVq9OFEUFdq9McIrYa-39" value="&lt;font style=&quot;font-size: 15px&quot;&gt;Inventory Data&lt;/font&gt;" style="text;html=1;strokeColor=none;fillColor=none;align=center;verticalAlign=middle;whiteSpace=wrap;rounded=0;" vertex="1" parent="1">
          <mxGeometry x="440" y="130" width="110" height="40" as="geometry" />
        </mxCell>
        <mxCell id="M5aVq9OFEUFdq9McIrYa-40" value="&lt;font style=&quot;font-size: 15px&quot;&gt;Sales Data&lt;/font&gt;" style="text;html=1;strokeColor=none;fillColor=none;align=center;verticalAlign=middle;whiteSpace=wrap;rounded=0;" vertex="1" parent="1">
          <mxGeometry x="590" y="30" width="120" height="40" as="geometry" />
        </mxCell>
        <mxCell id="M5aVq9OFEUFdq9McIrYa-42" value="&lt;font style=&quot;font-size: 15px&quot;&gt;Formatted sales total amount&lt;/font&gt;" style="text;html=1;strokeColor=none;fillColor=none;align=center;verticalAlign=middle;whiteSpace=wrap;rounded=0;" vertex="1" parent="1">
          <mxGeometry x="640" y="270" width="90" height="40" as="geometry" />
        </mxCell>
        <mxCell id="M5aVq9OFEUFdq9McIrYa-43" value="&lt;font style=&quot;font-size: 15px&quot;&gt;Formatted inventory amount&lt;/font&gt;" style="text;html=1;strokeColor=none;fillColor=none;align=center;verticalAlign=middle;whiteSpace=wrap;rounded=0;" vertex="1" parent="1">
          <mxGeometry x="440" y="270" width="90" height="40" as="geometry" />
        </mxCell>
        <mxCell id="M5aVq9OFEUFdq9McIrYa-44" value="&lt;font style=&quot;font-size: 15px&quot;&gt;Formatted goods sold amount&lt;/font&gt;" style="text;html=1;strokeColor=none;fillColor=none;align=center;verticalAlign=middle;whiteSpace=wrap;rounded=0;" vertex="1" parent="1">
          <mxGeometry x="240" y="270" width="90" height="40" as="geometry" />
        </mxCell>
        <mxCell id="M5aVq9OFEUFdq9McIrYa-45" value="&lt;font style=&quot;font-size: 15px&quot;&gt;Good sold amount&lt;/font&gt;" style="text;html=1;strokeColor=none;fillColor=none;align=center;verticalAlign=middle;whiteSpace=wrap;rounded=0;" vertex="1" parent="1">
          <mxGeometry x="240" y="580" width="90" height="40" as="geometry" />
        </mxCell>
        <mxCell id="M5aVq9OFEUFdq9McIrYa-46" value="&lt;font style=&quot;font-size: 15px&quot;&gt;Management Report&lt;/font&gt;" style="text;html=1;strokeColor=none;fillColor=none;align=center;verticalAlign=middle;whiteSpace=wrap;rounded=0;" vertex="1" parent="1">
          <mxGeometry x="550" y="585" width="90" height="40" as="geometry" />
        </mxCell>
        <mxCell id="M5aVq9OFEUFdq9McIrYa-47" value="&lt;span style=&quot;font-size: 15px&quot;&gt;Sales total&lt;/span&gt;" style="text;html=1;strokeColor=none;fillColor=none;align=center;verticalAlign=middle;whiteSpace=wrap;rounded=0;" vertex="1" parent="1">
          <mxGeometry x="520" y="420" width="90" height="40" as="geometry" />
        </mxCell>
        <mxCell id="M5aVq9OFEUFdq9McIrYa-48" value="&lt;font style=&quot;font-size: 15px&quot;&gt;Inventory amounts&lt;/font&gt;" style="text;html=1;strokeColor=none;fillColor=none;align=center;verticalAlign=middle;whiteSpace=wrap;rounded=0;" vertex="1" parent="1">
          <mxGeometry x="340" y="440" width="90" height="40" as="geometry" />
        </mxCell>
        <mxCell id="M5aVq9OFEUFdq9McIrYa-49" style="edgeStyle=orthogonalEdgeStyle;rounded=0;orthogonalLoop=1;jettySize=auto;html=1;exitX=0.5;exitY=1;exitDx=0;exitDy=0;" edge="1" parent="1" source="M5aVq9OFEUFdq9McIrYa-45" target="M5aVq9OFEUFdq9McIrYa-45">
          <mxGeometry relative="1" as="geometry" />
        </mxCell>
      </root>
    </mxGraphModel>
  </diagram>
</mxfile>
